<?xml version="1.0" standalone="no"?>
<!DOCTYPE svg PUBLIC "-//W3C//DTD SVG 20010904//EN"
 "http://www.w3.org/TR/2001/REC-SVG-20010904/DTD/svg10.dtd">
<svg version="1.0" xmlns="http://www.w3.org/2000/svg"
 width="128.000000pt" height="128.000000pt" viewBox="0 0 128.000000 128.000000"
 preserveAspectRatio="xMidYMid meet">
<metadata>
Created by potrace 1.11, written by Peter Selinger 2001-2013
</metadata>
<g transform="translate(0.000000,128.000000) scale(0.100000,-0.100000)"
fill="#000000" stroke="none">
<path d="M732 1248 c-15 -61 -106 -205 -184 -293 -68 -76 -170 -210 -188 -245
-110 -215 -37 -471 171 -602 93 -60 102 -58 53 7 -38 50 -93 176 -107 245 -34
164 21 343 145 479 48 52 55 52 22 -1 -15 -23 -40 -78 -57 -123 -26 -70 -30
-96 -33 -200 -3 -97 1 -135 17 -195 11 -41 22 -77 25 -79 2 -2 27 12 56 31
142 95 248 250 277 405 9 48 7 184 -4 236 -17 82 -70 203 -130 300 -39 62 -54
70 -63 35z"/>
<path d="M56 1042 c-16 -27 -34 -152 -30 -225 5 -124 44 -223 123 -310 31 -35
112 -97 125 -97 9 0 -3 125 -19 199 -8 39 -26 102 -39 140 -14 39 -23 71 -21
71 2 0 25 -34 51 -75 l48 -75 12 30 c15 35 62 105 93 137 l21 23 -25 39 c-32
48 -91 96 -153 123 -52 23 -175 37 -186 20z"/>
<path d="M955 914 c26 -115 12 -260 -37 -377 -45 -110 -161 -240 -270 -306
l-38 -22 17 -32 c22 -44 69 -112 100 -145 21 -22 24 -23 14 -5 -6 12 -11 24
-11 27 0 3 83 6 185 6 141 0 185 3 186 13 0 6 1 139 1 295 l0 282 57 1 c31 1
67 0 81 -1 20 -1 -6 29 -135 159 -88 89 -161 161 -161 161 -1 0 4 -25 11 -56z"/>
</g>
</svg>
