<?xml version="1.0" standalone="no"?>
<!DOCTYPE svg PUBLIC "-//W3C//DTD SVG 20010904//EN"
 "http://www.w3.org/TR/2001/REC-SVG-20010904/DTD/svg10.dtd">
<svg version="1.0" xmlns="http://www.w3.org/2000/svg"
 width="700.000000pt" height="700.000000pt" viewBox="0 0 700.000000 700.000000"
 preserveAspectRatio="xMidYMid meet">
<metadata>
Created by potrace 1.11, written by Peter Selinger 2001-2013
</metadata>
<g transform="translate(0.000000,700.000000) scale(0.100000,-0.100000)"
fill="#000000" stroke="none">
<path d="M3099 5536 c-2 -2 -49 -6 -104 -10 -101 -7 -136 -10 -235 -21 -64 -7
-112 -13 -155 -20 -16 -3 -48 -7 -70 -10 -734 -106 -1473 -428 -1895 -826 -30
-28 -44 -45 -30 -36 66 41 209 127 245 147 54 30 293 150 299 150 3 0 29 11
58 25 219 101 678 234 938 270 25 3 59 9 75 11 117 21 392 49 590 61 262 15
900 8 1004 -12 9 -1 43 -6 76 -9 49 -6 160 -24 245 -41 177 -35 418 -121 554
-198 293 -164 489 -411 566 -713 33 -129 43 -202 45 -349 5 -262 -46 -434
-187 -631 -41 -58 -156 -177 -206 -214 -19 -14 -39 -30 -46 -37 -21 -19 -146
-97 -219 -138 -153 -83 -407 -177 -622 -229 -89 -22 -321 -64 -393 -72 -34 -4
-61 -8 -59 -10 6 -6 130 -18 412 -39 266 -21 795 -26 1075 -12 85 5 157 10
160 12 3 1 48 6 100 9 51 4 96 9 100 10 3 2 32 6 65 10 60 6 69 8 180 27 102
18 107 20 215 45 536 126 878 360 994 683 37 102 38 111 41 261 3 105 -1 154
-15 215 -86 369 -308 678 -710 988 -90 70 -308 197 -455 267 -291 137 -633
246 -1005 319 -121 23 -300 52 -415 66 -160 19 -209 25 -290 31 -49 4 -106 9
-125 11 -43 5 -796 14 -801 9z"/>
<path d="M2095 4894 c-60 -13 -122 -26 -137 -29 -16 -3 -58 -12 -95 -21 -38
-9 -75 -17 -83 -19 -156 -34 -525 -156 -668 -221 -29 -13 -55 -24 -58 -24 -3
0 -64 -29 -136 -65 -513 -257 -802 -594 -846 -985 -17 -158 4 -358 54 -515
115 -355 395 -665 824 -912 47 -26 103 -57 125 -67 22 -10 70 -34 107 -52 75
-36 296 -121 403 -154 82 -25 165 -48 165 -45 0 1 -28 19 -62 40 -303 185
-548 471 -678 790 -36 90 -90 282 -105 380 -13 82 -13 419 1 510 58 396 217
721 465 952 29 26 57 53 63 58 23 22 133 103 191 141 74 49 217 122 310 159
39 15 79 31 90 36 22 9 178 55 210 62 15 4 14 5 -5 5 -14 0 -74 -11 -135 -24z"/>
<path d="M3224 4297 c-138 -55 -168 -235 -55 -329 l29 -25 -30 -54 c-16 -30
-61 -115 -100 -189 -39 -74 -79 -148 -88 -165 -10 -16 -38 -68 -62 -115 -77
-144 -161 -303 -189 -355 -15 -27 -41 -77 -58 -110 -17 -33 -50 -96 -74 -140
-45 -84 -119 -221 -195 -365 -24 -47 -57 -107 -72 -135 -15 -27 -51 -95 -80
-150 -29 -55 -86 -161 -125 -235 -40 -74 -82 -154 -94 -177 l-21 -42 54 -16
c29 -9 62 -18 72 -20 11 -2 44 -11 74 -20 122 -34 449 -96 570 -107 l35 -3 12
60 c7 33 15 74 17 90 13 72 17 93 26 140 5 28 12 66 16 85 5 32 26 146 39 213
2 15 9 53 15 85 6 31 12 68 15 82 3 14 11 61 19 105 8 44 31 168 51 275 20
107 38 206 40 220 2 14 13 70 23 125 28 144 35 178 37 195 1 8 5 29 8 45 4 17
9 46 13 65 3 19 12 69 19 110 31 169 66 357 71 385 14 84 25 107 45 102 55
-14 146 39 179 104 62 121 -18 264 -153 275 -28 2 -66 -2 -83 -9z"/>
<path d="M6665 2809 c-96 -70 -269 -172 -395 -233 -227 -112 -388 -171 -705
-261 -154 -44 -533 -107 -723 -120 -352 -25 -663 -22 -962 10 -125 13 -159 17
-235 30 -43 8 -80 13 -81 12 -4 -4 -19 -184 -29 -342 -3 -55 -8 -113 -10 -130
-2 -16 -7 -73 -10 -125 -3 -52 -8 -105 -11 -117 -4 -19 0 -23 23 -24 49 -2
195 2 283 7 103 6 234 18 320 29 19 3 53 7 75 9 69 9 116 17 270 47 561 111
1076 318 1535 617 74 48 326 234 340 251 3 3 39 35 80 71 109 94 331 323 308
319 -1 0 -34 -23 -73 -50z"/>
</g>
</svg>
